<svg fill="none" viewBox="0 0 73 56" xmlns="http://www.w3.org/2000/svg" xmlns:xlink="http://www.w3.org/1999/xlink">
    <linearGradient id="a" gradientUnits="userSpaceOnUse" x1="53.6451" x2="62.659" y1="52.2713" y2="1.10501">
        <stop offset=".06" stop-color="#5231f9" />
        <stop offset=".32" stop-color="#6c2cfc" />
        <stop offset=".68" stop-color="#bb12fc" />
        <stop offset=".77" stop-color="#cf0bf9" />
        <stop offset=".94" stop-color="#ef00f5" />
    </linearGradient>
    <linearGradient id="b" gradientUnits="userSpaceOnUse" x1="4.96827" x2="48.0976" y1="16.2937" y2="59.4718">
        <stop offset=".36" stop-color="#3ceb18" />
        <stop offset=".95" stop-color="#00eae8" />
    </linearGradient>
    <radialGradient id="c" cx="0" cy="0" gradientTransform="matrix(28.4366 0 0 28.406 5.11776 51.0883)"
        gradientUnits="userSpaceOnUse" r="1">
        <stop offset=".24" stop-color="#2fcc0e" />
        <stop offset=".44" stop-color="#2fcc0e" stop-opacity=".65" />
        <stop offset=".65" stop-color="#2fcc0e" stop-opacity=".3" />
        <stop offset=".8" stop-color="#2fcc0e" stop-opacity=".08" />
        <stop offset=".88" stop-color="#2fcc0e" stop-opacity="0" />
    </radialGradient>
    <clipPath id="d">
        <path d="m0 0h73v56h-73z" />
    </clipPath>
    <g clip-path="url(#d)">
        <path
            d="m59.0503.854001c-2.1723.387329-3.1697 1.850329-3.1697 6.677999 0 29.218-6.5101 37.0113-10.0255 37.0113-2.3662 0-3.1978-2.114-3.4594-3.143 2.3966 12.0074 10.7075 11.7904 15.2811 8.5027 1.6141-1.5797 3.2328-3.5093 4.8049-5.831 8.3063-12.257 10.4389-22.9927 10.516-29.7827.0911-7.8703-8.7641-14.3569658-13.9474-13.435299z"
            fill="url(#a)" />
        <path
            d="m42.3956 41.4003c-.035-.182-.0701-.364-.1051-.5506-2.6956-15.0454-1.4739-40.8497-15.0989-40.8497-19.51141 0-26.983794 41.6337-27.19168445 51.6437-.04204535 1.9856 1.22632445 3.808 3.22814445 4.249 1.94576.427 3.87284-.5927 4.65068-2.3427.11212-.2543 7.80176-23.541 15.41426-23.541 10.0232 0 9.3131 25.991 23.0642 25.991 3.3753 0 6.8674-1.743 11.3172-6.097-4.5736 3.2877-12.8845 3.5047-15.2811-8.5027z"
            fill="url(#b)" />
        <path
            d="m42.3956 41.4003c-.035-.182-.0701-.364-.1051-.5506-2.6956-15.0454-1.4739-40.8497-15.0989-40.8497-19.51141 0-26.983794 41.6337-27.19168445 51.6437-.04204535 1.9856 1.22632445 3.808 3.22814445 4.249 1.94576.427 3.87284-.5927 4.65068-2.3427.11212-.2543 7.80176-23.541 15.41426-23.541 10.0232 0 9.3131 25.991 23.0642 25.991 3.3753 0 6.8674-1.743 11.3172-6.097-4.5736 3.2877-12.8845 3.5047-15.2811-8.5027z"
            fill="url(#c)" />
    </g>
</svg>